<?xml version="1.0" encoding="UTF-8" standalone="no"?>
<svg width="223px" height="42px" viewBox="0 0 223 42" version="1.1" xmlns="http://www.w3.org/2000/svg" xmlns:xlink="http://www.w3.org/1999/xlink">
    <!-- Generator: Sketch 39.1 (31720) - http://www.bohemiancoding.com/sketch -->
    <title>Logo</title>
    <desc>Created with Sketch.</desc>
    <defs>
        <polygon id="path-1" points="222.989285 20.6965757 222.989285 0.133760714 0 0.133760714 0 20.6965757 0 41.2593907 222.989285 41.2593907 222.989285 20.6965757"></polygon>
    </defs>
    <g id="Mobile-App" stroke="none" stroke-width="1" fill="none" fill-rule="evenodd">
        <g id="2.-Sign-In" transform="translate(-76.000000, -124.000000)">
            <g id="Logo" transform="translate(76.000000, 124.000000)">
                <path d="M105.086172,11.3956143 C106.935799,11.3956143 108.570463,9.25810476 108.570463,6.99282381 C108.570463,5.58201429 107.62422,4.64169643 106.376625,4.64169643 C104.484139,4.64169643 102.763088,6.77920595 102.763088,8.95930595 C102.763088,10.4978869 103.838577,11.3956143 105.086172,11.3956143" id="Fill-1" fill="#FEFEFE"></path>
                <path d="M194.728355,11.3956143 C196.578652,11.3956143 198.213316,9.25810476 198.213316,6.99282381 C198.213316,5.58201429 197.266403,4.64169643 196.019478,4.64169643 C194.126322,4.64169643 192.405271,6.77920595 192.405271,8.95930595 C192.405271,10.4978869 193.48143,11.3956143 194.728355,11.3956143" id="Fill-3" fill="#FEFEFE"></path>
                <g id="Group-7" transform="translate(0.000000, 0.531582)">
                    <mask id="mask-2" fill="white">
                        <use xlink:href="#path-1"></use>
                    </mask>
                    <g id="Clip-6"></g>
                    <path d="M203.287604,39.378755 C202.556324,39.378755 201.567222,38.2667443 201.567222,34.8901181 C201.567222,32.5809157 201.910763,29.6741157 201.910763,29.6741157 C201.910763,29.6741157 204.750832,32.6667621 204.750832,36.3861086 C204.750832,37.7543276 204.363093,39.378755 203.287604,39.378755 L203.287604,39.378755 Z M173.049339,17.4905776 C175.84521,9.88085738 178.813856,4.19569429 180.405661,4.19569429 C180.921976,4.19569429 181.222658,4.53774905 181.222658,5.05016571 C181.222658,7.6581669 176.017315,15.0536038 173.049339,17.4905776 L173.049339,17.4905776 Z M154.293901,29.9309895 C152.745625,29.9309895 152.18645,27.5366062 152.18645,25.0570419 C152.18645,24.5020348 155.36939,19.6706776 155.36939,19.6706776 C155.36939,21.4235419 156.703372,24.1593145 156.703372,26.3394145 C156.703372,28.2633062 155.627883,29.9309895 154.293901,29.9309895 L154.293901,29.9309895 Z M118.463225,25.9121788 C118.334649,25.8695883 118.162544,25.8269979 117.990438,25.8269979 C117.302018,25.8269979 115.839459,26.9809336 115.839459,27.9212514 C115.839459,28.3058967 116.097282,28.6479514 116.570739,28.9474157 C116.140811,29.2894705 115.710213,29.4604979 115.237426,29.4604979 C113.946303,29.4604979 113.172165,28.2633062 113.172165,26.5536979 C113.172165,20.7826883 116.18367,16.5495943 118.119685,16.5495943 C119.108787,16.5495943 119.797207,17.3195502 119.797207,19.2434419 C119.797207,21.1240776 119.323751,23.7746693 118.463225,25.9121788 L118.463225,25.9121788 Z M71.3198198,28.2633062 C70.4157658,28.2633062 70.0722252,27.5798621 70.0722252,26.3394145 C70.0722252,22.7491705 73.1265886,16.849724 75.6211081,16.849724 C76.4823033,16.849724 77.1700541,17.4479871 77.1700541,18.6871038 C77.1700541,21.9792145 73.3844114,28.2633062 71.3198198,28.2633062 L71.3198198,28.2633062 Z M47.6617297,16.5495943 C48.1351862,16.5495943 48.4365375,16.849724 48.4365375,17.4047312 C48.4365375,19.2008514 45.9848769,23.1757407 42.8441261,23.1757407 C42.8441261,20.9537157 45.2964565,16.5495943 47.6617297,16.5495943 L47.6617297,16.5495943 Z M66.3307808,4.19569429 C66.6321321,4.19569429 66.8470961,4.40864667 66.8470961,4.79395738 C66.8470961,7.4012931 61.9424354,16.6786967 58.9744595,19.115005 C60.7383694,11.9757764 64.7818348,4.19569429 66.3307808,4.19569429 L66.3307808,4.19569429 Z M211.547309,4.19569429 C212.106483,4.19569429 212.450694,4.53774905 212.450694,5.05016571 C212.450694,7.6581669 207.158964,17.4905776 204.363093,19.5854967 C206.514072,12.0609574 209.998363,4.19569429 211.547309,4.19569429 L211.547309,4.19569429 Z M221.698832,14.754805 C222.258006,14.754805 222.989285,13.6860502 222.989285,13.258149 C222.989285,13.0019407 222.860709,12.8735038 222.645075,12.8735038 L219.762817,12.8735038 C220.537625,10.7785848 221.182517,9.28259429 221.182517,8.89794905 C221.182517,8.1279931 219.117925,6.33320381 217.826802,6.33320381 C217.310486,6.33320381 216.880559,6.6745931 216.665595,7.14441929 C215.890787,8.51330381 215.030931,10.5649669 214.170405,12.8735038 L213.30988,12.8735038 C212.707177,12.8735038 212.019426,13.9422586 212.019426,14.3701598 C212.019426,14.6263681 212.148003,14.754805 212.363637,14.754805 L213.524844,14.754805 C212.204255,18.6544955 211.082559,22.8816002 210.826745,25.4490074 C209.596562,26.9709514 207.864126,28.6479514 205.18009,28.6479514 C203.373991,28.6479514 202.384219,27.4088348 202.384219,27.4088348 C202.513465,25.9547693 202.771288,24.4161883 203.244745,23.0905598 C207.933102,19.3718788 214.644532,8.64174071 214.644532,5.09275619 C214.644532,3.55417524 212.622799,1.33081929 210.686784,1.33081929 C205.353535,1.33081929 199.512676,13.6248264 197.488264,25.7032193 C196.688679,26.7753014 195.054685,28.6479514 193.395243,28.6479514 C192.534048,28.6479514 192.018402,28.0070979 192.018402,27.0241895 C192.018402,22.8769419 194.427874,19.3718788 194.427874,16.8064681 C194.427874,16.164949 192.319754,14.3701598 191.028631,14.3701598 C190.512985,14.3701598 190.082387,14.7122145 189.867423,15.1820407 C188.944619,17.3208812 186.997219,22.4570264 186.591399,25.723849 C185.786456,26.7985931 184.163177,28.6479514 182.513781,28.6479514 C181.652586,28.6479514 181.13694,28.0070979 181.13694,27.0241895 C181.13694,23.6894883 183.889952,19.9701419 183.889952,17.3195502 C183.889952,15.8661502 182.427393,14.3701598 181.13694,14.3701598 C179.286643,14.3701598 177.738366,15.3104776 177.566261,15.438249 C177.867613,15.0968598 183.330108,8.64174071 183.330108,5.09275619 C183.330108,3.55417524 181.394763,1.33081929 179.458748,1.33081929 C172.620081,1.33081929 167.262054,16.4704026 165.848381,25.3298871 C165.205498,26.1158145 163.447616,27.98913 160.790366,28.6905419 C160.790366,28.6905419 161.779468,27.6224526 161.779468,25.4423526 C161.779468,22.8343514 160.101946,21.4235419 160.101946,18.0462502 C160.101946,16.8923145 161.134577,15.8235598 161.134577,15.2246312 C161.134577,14.7973955 159.929841,13.6427943 159.026456,13.6427943 C157.950967,13.6427943 156.574126,14.6689586 154.552393,17.661605 C152.57352,20.6968419 151.670135,22.1076514 151.670135,22.1076514 C151.670135,22.1076514 147.540282,23.0479693 147.540282,25.5275336 C147.540282,25.7451443 147.575775,25.9747336 147.62667,26.2076502 C146.749402,27.2757395 145.348453,28.6479514 143.928754,28.6479514 C143.068228,28.6479514 142.551913,28.0070979 142.551913,27.0241895 C142.551913,23.9463621 144.832138,20.611661 144.832138,18.0462502 C144.832138,16.3785669 143.068228,14.3701598 141.175742,14.3701598 C137.518676,14.3701598 134.421453,17.1059324 134.421453,17.1059324 C133.087471,15.0536038 132.055511,14.7973955 131.409949,14.7973955 C130.893634,14.7973955 130.463706,15.0968598 130.248742,15.6092764 C129.508087,17.4333467 127.924318,21.4594776 127.174288,25.3591681 C126.473144,26.1490883 124.680438,27.878661 122.421643,27.878661 C122.16315,27.878661 121.948186,27.8360705 121.733222,27.79348 C123.410745,25.6559705 124.400517,22.9627883 124.400517,20.6968419 C124.400517,16.7638776 121.646835,14.3701598 118.076156,14.3701598 C113.631559,14.3701598 108.173751,18.2552098 108.102766,25.349186 C107.449838,26.2848455 105.616282,28.6479514 103.752592,28.6479514 C102.892066,28.6479514 102.375751,28.0070979 102.375751,27.0241895 C102.375751,22.8769419 104.785222,19.3718788 104.785222,16.8064681 C104.785222,16.164949 102.677102,14.3701598 101.385979,14.3701598 C100.870333,14.3701598 100.439736,14.7122145 100.224772,15.1820407 C99.3026366,17.3208812 97.3552372,22.4556955 96.9487477,25.7225181 C96.1444745,26.7972621 94.5198559,28.6479514 92.8697898,28.6479514 C91.6221952,28.6479514 90.5895646,27.7076336 90.5895646,26.425261 C90.5895646,23.3474336 92.1813694,18.5593324 93.6010691,14.754805 L96.2683634,14.754805 C96.8275375,14.754805 97.5588168,13.6860502 97.5588168,13.258149 C97.5588168,13.0019407 97.4295706,12.8735038 97.2146066,12.8735038 L94.3323483,12.8735038 C95.1071562,10.7785848 95.752048,9.28259429 95.752048,8.89794905 C95.752048,8.1279931 93.6874565,6.33320381 92.397003,6.33320381 C91.8806877,6.33320381 91.4500901,6.6745931 91.2351261,7.14441929 C90.460988,8.51330381 89.6004625,10.5649669 88.7399369,12.8735038 L87.8800811,12.8735038 C87.2773784,12.8735038 86.588958,13.9422586 86.588958,14.3701598 C86.588958,14.6263681 86.7182042,14.754805 86.9331682,14.754805 L88.0943754,14.754805 C86.7590541,18.6997479 85.627982,22.9767633 85.3895796,25.5341883 C84.6442372,26.5643455 82.9205075,28.6479514 81.1706607,28.6479514 C80.4393814,28.6479514 79.9665946,28.1348693 79.9665946,27.4514252 C79.9665946,24.5439598 82.4617838,19.6706776 82.4617838,18.388305 C82.4617838,16.8923145 80.6978739,16.3785669 79.4074204,16.3785669 C79.4074204,16.3785669 78.2026847,14.3701598 74.7183934,14.3701598 C70.3662102,14.3701598 65.6537447,19.9015979 64.9238048,25.5787752 C64.1623904,26.6229074 62.4634384,28.6479514 60.7383694,28.6479514 C58.9744595,28.6479514 57.9846877,27.2378074 57.9846877,25.2713252 C57.9846877,23.7746693 58.3288979,22.021805 58.3288979,22.021805 C62.6308559,18.388305 68.9980751,8.47071333 68.9980751,4.83654786 C68.9980751,3.29730143 67.3198829,1.33081929 65.3838679,1.33081929 C59.1894234,1.33081929 52.7793453,16.5076693 52.7793453,25.1002979 C52.7793453,25.1748312 52.7880511,25.2447062 52.7900601,25.318574 C52.0607898,26.2775252 49.7564565,28.9048252 46.4148048,28.9048252 C44.3495435,28.9048252 42.6291622,27.4514252 42.6291622,24.9292705 C42.6291622,24.9292705 43.7903694,25.1854788 44.2638258,25.1854788 C49.6841321,25.1854788 51.2759369,20.9104598 51.2759369,18.8587967 C51.2759369,16.5928502 49.1678168,14.3701598 46.5433814,14.3701598 C42.8012673,14.3701598 37.3374324,18.6871038 37.3374324,25.2280693 C37.3374324,25.3085919 37.3474775,25.3851217 37.3508258,25.4643133 C36.636958,26.4638586 34.8743874,28.6479514 33.0816817,28.6479514 C30.9313724,28.6479514 29.9844595,26.6821348 29.2967087,21.9792145 C28.9953574,19.8423705 28.091973,18.8162062 27.3178348,18.3457145 C32.6517538,16.7212871 37.2115345,13.0445312 37.2115345,8.34161095 C37.2115345,3.72520262 32.4796486,0.133627619 23.7036276,0.133627619 C14.4976787,0.133627619 5.42030631,4.45190262 5.42030631,9.8382669 C5.42030631,13.2155586 9.98075676,15.3104776 12.260982,15.3104776 C12.8201562,15.3104776 13.1643664,15.0536038 13.1643664,14.4979312 C13.1643664,13.9422586 11.0127177,13.1303776 11.0127177,10.5223764 C11.0127177,6.20410143 15.616027,2.61385738 23.6179099,2.61385738 C29.0810751,2.61385738 31.4041592,4.70811095 31.4041592,8.1279931 C31.4041592,12.7883229 26.6294144,16.5495943 21.0798619,16.6786967 C22.1553514,12.1468038 22.6281381,10.9928681 23.4458048,8.98313 C24.5212943,6.37512881 25.8974655,5.39222048 25.8974655,5.05016571 C25.8974655,4.70811095 25.6825015,4.45190262 25.0804685,4.45190262 C24.5212943,4.45190262 21.1227207,5.17860262 19.7458799,6.58941214 C17.9391111,8.59848476 17.2942192,11.078049 15.7452733,17.3195502 C13.7235405,25.3139157 11.4861742,28.6905419 8.86173874,28.6905419 C6.58218318,28.6905419 5.07676577,26.7240598 5.07676577,24.5865502 C5.07676577,22.5348871 6.75428829,20.2689407 7.82977778,19.4570598 C8.43181081,19.029824 8.60391592,18.9013871 8.60391592,18.4741514 C8.60391592,18.1314312 8.17398799,17.7900419 7.52842643,17.7900419 C5.03323724,17.7900419 0,20.2689407 0,23.8172598 C0,26.8099062 4.2590991,31.5128264 10.2385796,31.5128264 C15.013994,31.5128264 18.2833213,28.52018 20.5206877,19.2434419 L21.3805435,19.2434419 C22.1553514,19.2434419 22.9723483,19.2008514 23.7464865,19.115005 C24.1770841,19.6280871 24.607012,20.5258145 24.607012,21.9792145 C24.607012,24.7156526 24.7362583,26.6388788 25.2525736,28.0070979 C26.155958,30.3582252 28.479042,31.5128264 31.661982,31.5128264 C34.3895465,31.5128264 36.65303,29.3593455 37.9320991,27.808786 C39.0377237,30.0487788 41.5965315,31.5128264 44.823,31.5128264 C49.0988408,31.5128264 51.8752913,29.2688407 53.2916426,27.7129574 C54.3142282,30.1319633 56.7404414,31.5128264 59.3186697,31.5128264 C61.6805946,31.5128264 63.6956306,29.8957193 65.0249249,28.4549633 C65.5840991,30.3029907 67.2415315,31.5128264 69.1253123,31.5128264 C72.3953093,31.5128264 75.234039,27.878661 75.234039,27.878661 C75.5353904,30.2723788 77.385018,31.5128264 79.750961,31.5128264 C82.2896787,31.5128264 84.4245856,29.6474967 85.7398168,28.1381967 C86.7108378,30.1852014 89.2950931,31.5128264 91.4500901,31.5128264 C93.8146937,31.5128264 95.8317387,29.8923919 97.1603634,28.4509705 C97.8548108,30.3156348 99.7573423,31.5128264 102.332892,31.5128264 C105.07452,31.5128264 107.346709,29.3373848 108.62176,27.7848288 C109.659748,29.9742455 112.109399,31.5128264 114.806829,31.5128264 C116.657126,31.5128264 118.334649,30.8713074 119.71082,29.8025526 C120.313523,29.8877336 120.872697,29.9309895 121.389012,29.9309895 C123.761652,29.9309895 125.553688,29.1131193 126.792577,28.2493312 C126.773826,28.5587776 126.763781,28.8635657 126.763781,29.1610336 C126.763781,30.5292526 128.527691,31.5128264 130.807916,31.5128264 C131.409949,31.5128264 131.754159,31.383724 131.754159,30.6576895 C131.754159,22.4497062 135.798294,17.3621407 138.379201,17.3621407 C138.851988,17.3621407 139.239727,17.661605 139.239727,18.0462502 C139.239727,20.611661 137.045889,23.6894883 137.045889,27.1945514 C137.045889,29.5889348 139.239727,31.5128264 142.509054,31.5128264 C145.053799,31.5128264 147.192054,29.63818 148.506616,28.127549 C149.839928,30.0487788 152.411459,31.8116252 155.326532,31.8116252 C160.384547,31.8116252 163.638471,29.9848931 165.500153,28.4256824 C165.48609,28.6991931 165.478054,28.9613907 165.478054,29.2042895 C165.478054,30.8280514 167.972574,31.5128264 169.693625,31.5128264 C170.295658,31.5128264 170.467763,31.1707717 170.467763,30.6576895 C170.467763,22.8769419 173.909195,17.7900419 176.9207,17.7900419 C177.522733,17.7900419 177.867613,18.1746871 177.867613,19.029824 C177.867613,20.611661 175.630246,23.7320788 175.630246,26.8099062 C175.630246,29.5889348 177.824084,31.5128264 181.093411,31.5128264 C183.457345,31.5128264 185.47439,29.8930574 186.803015,28.4509705 C187.497462,30.3163002 189.399994,31.5128264 191.974874,31.5128264 C193.976517,31.5128264 195.725024,30.3502395 197.022844,29.119774 C196.846721,30.7814681 196.748279,32.417874 196.748279,33.9917252 C196.748279,39.42068 200.57745,41.2593907 203.115498,41.2593907 C205.868511,41.2593907 207.503844,38.4377717 207.503844,36.2583371 C207.503844,32.5389907 205.051514,30.5292526 205.051514,30.5292526 C208.006766,30.5292526 209.867108,29.3260717 211.122739,28.04503 C212.057598,30.1459383 214.692078,31.5128264 216.880559,31.5128264 C219.418607,31.5128264 221.78455,28.52018 221.78455,28.52018 C221.78455,28.52018 222.258006,27.9645074 222.258006,27.5798621 C222.258006,27.1093705 221.78455,26.6388788 221.311763,26.6388788 C220.924694,26.6388788 220.623342,26.9809336 220.407709,27.2378074 C220.407709,27.2378074 219.160784,28.6479514 218.171682,28.6479514 C217.052664,28.6479514 216.020033,27.7076336 216.020033,26.425261 C216.020033,23.3474336 217.611838,18.5593324 219.031538,14.754805 L221.698832,14.754805 Z" id="Fill-5" fill="#FEFEFE" mask="url(#mask-2)"></path>
                </g>
            </g>
        </g>
    </g>
</svg>